<svg xmlns="http://www.w3.org/2000/svg" viewBox="0 0 543 214.27"><defs><style>.cls-1{fill:#af272f;}.cls-2{fill:#006341;}.cls-3{fill:#75787b;}</style></defs><title>bancoAzteca</title><g id="Capa_2" data-name="Capa 2"><g id="Layer_1" data-name="Layer 1"><path class="cls-1" d="M310.17,86.46a38.77,38.77,0,1,1-38.78-38.78,38.77,38.77,0,0,1,38.78,38.78"/><path class="cls-2" d="M321.66,0A284.37,284.37,0,0,0,268.2,14.82c-47.1,19.89-80.27,54.49-77.44,83.74,1.85,19.11,12.07,31.73,37,36.24-44.85,4.67-72.35-9-75-36-3.14-32.51,40.49-72.18,98.4-90.32a203.56,203.56,0,0,1,25.44-5.65C289.28.88,304.16,0,321.66,0"/><path class="cls-2" d="M221.14,0A283.79,283.79,0,0,1,274.6,14.82C321.69,34.71,354.84,69.31,352,98.56c-1.84,19.11-12.08,31.73-37,36.24,44.84,4.67,72.36-9,75-36,3.14-32.51-40.5-72.18-98.42-90.32a203.11,203.11,0,0,0-25.43-5.65C253.5.88,238.64,0,221.14,0"/><path class="cls-3" d="M12.18,155H38.05c6,0,16.44,2.33,16.44,13.35,0,7.84-6.09,13.68-15.27,14.77v.17c6.67,1,11.26,4.83,11.26,11.26,0,12.35-10.59,18.19-23.95,18.36L0,213.27Zm5.51,47.23h4.17c7.85,0,13.1-2.17,13.1-7.85,0-5.09-3.67-5.84-10.68-5.84H20.53Zm5.09-24.2h5.84c6.51,0,10.35-2.59,10.35-6.59,0-4.68-3.84-5.43-9.68-5.43h-4Z"/><path class="cls-3" d="M82.94,207.18l-.17-.17v.17c-3.17,5-8.76,7.09-14.6,7.09-9.35,0-14.52-4.17-14.52-12.6,0-10.68,10.68-15.94,23.95-15.94,3,0,6,.26,8.09.42a6.12,6.12,0,0,0,.17-1.75c0-3.09-3.09-5.59-8-5.59a27.35,27.35,0,0,0-14.11,3.42l1.51-10.93a46.92,46.92,0,0,1,15.93-2.51c10.35,0,18.86,4.09,18.86,14.77,0,6.85-3.83,16.61-5.5,29.71H82.27Zm-10-2.92c6.43,0,10.27-4.42,11.35-10.26a22.51,22.51,0,0,0-4-.26c-7.18-.25-12.44,2.34-12.44,6.18a4.79,4.79,0,0,0,5.09,4.34"/><path class="cls-3" d="M108.55,181.15c.75-3.76,1.42-7.43,1.84-11.35h13.93l-1.17,7.09h.17c4.34-4.84,8.84-8.09,16.77-8.09,8.76,0,13.52,6.5,13.52,15a39.92,39.92,0,0,1-1.17,9.17l-4,20.28H132.91l4.18-20.36a34.74,34.74,0,0,0,1-6.59c0-2.59-1.67-5.17-5.84-5-6.34,0-10.1,5.51-11.18,11.93l-4.26,20h-15Z"/><path class="cls-3" d="M190.82,212.6A40.49,40.49,0,0,1,178,214.27c-12.68,0-20.53-8.93-20.53-19.86,0-14.27,11.35-25.61,28-25.61a39.87,39.87,0,0,1,13.68,2.92l-3.25,10.42a23.39,23.39,0,0,0-9.68-2.33c-7.76,0-13.27,5-13.27,14,0,5.17,4,9.43,10.35,9.43a23.41,23.41,0,0,0,9.68-1.92Z"/><path class="cls-3" d="M219.69,214.27c-16.11,0-22.61-8.93-22.61-19.86,0-15.27,11-25.62,28-25.62,14.77,0,22.62,8.52,22.62,19.45,0,18.1-11.77,26-28,26m4.67-35c-7.26,0-11.76,7.84-11.76,14.77,0,5.84,3.08,9.76,8.17,9.68,7,0,11.43-5.84,11.43-15.69,0-4.51-2-8.76-7.84-8.76"/><path class="cls-3" d="M296.37,155h19.52l9.51,58.24H309.72l-1.59-12.43H285.52l-6.93,12.43H261.74Zm7.76,12H304l-12.35,22.78h15Z"/><polygon class="cls-3" points="328.99 201.92 352.69 180.81 334.08 180.81 336.33 169.8 373.21 169.8 370.88 181.15 347.01 202.25 366.87 202.25 364.62 213.27 326.82 213.27 328.99 201.92"/><path class="cls-3" d="M375.38,169.8H384l2.09-9.35,15.85-4.25-3,13.6h10.35l-1.84,10.51H396.49l-2.59,12.1c-.66,3.25-1.25,5.42-1.25,7.51a4.58,4.58,0,0,0,4.93,4.84,15,15,0,0,0,4.84-1.25l-1.67,9.93a60.88,60.88,0,0,1-9.35.83c-7.68,0-13.77-3.75-13.77-12.85,0-2.17.34-4.34,1.34-8.93l2.59-12.18h-8Z"/><path class="cls-3" d="M445.3,211.85a55.42,55.42,0,0,1-15.19,2.42c-14.52,0-22.36-8.93-22.36-19.86,0-10.09,6.68-25.61,26-25.61,11.43,0,20,5.75,20,18.94a48.55,48.55,0,0,1-1.08,8.18H421.94c.17,4.67,2.5,8.34,11.68,8.34a33.91,33.91,0,0,0,13.6-3Zm-4-24.45c0-4.67-1.83-8.59-7.34-8.59a11.09,11.09,0,0,0-11.09,8.59Z"/><path class="cls-3" d="M490.86,212.6A40.54,40.54,0,0,1,478,214.27c-12.69,0-20.53-8.93-20.53-19.86,0-14.27,11.35-25.61,28-25.61a39.87,39.87,0,0,1,13.68,2.92L496,182.14a23.42,23.42,0,0,0-9.68-2.33c-7.76,0-13.27,5-13.27,14,0,5.17,4,9.43,10.35,9.43a23.45,23.45,0,0,0,9.68-1.92Z"/><path class="cls-3" d="M525.9,207.18l-.17-.17v.17c-3.17,5-8.76,7.09-14.6,7.09-9.34,0-14.52-4.17-14.52-12.6,0-10.68,10.68-15.94,23.95-15.94,3,0,6,.26,8.09.42a6.12,6.12,0,0,0,.17-1.75c0-3.09-3.09-5.59-8-5.59a27.31,27.31,0,0,0-14.1,3.42l1.5-10.93a46.94,46.94,0,0,1,15.94-2.51c10.34,0,18.85,4.09,18.85,14.77,0,6.85-3.83,16.61-5.5,29.71H525.23Zm-10-2.92c6.42,0,10.26-4.42,11.34-10.26a22.45,22.45,0,0,0-4-.26c-7.17-.25-12.43,2.34-12.43,6.18a4.79,4.79,0,0,0,5.09,4.34"/></g></g></svg>