<?xml version="1.0" encoding="utf-8"?>
<!-- Generator: Adobe Illustrator 22.0.1, SVG Export Plug-In . SVG Version: 6.00 Build 0)  -->
<svg version="1.1" id="Capa_1" xmlns="http://www.w3.org/2000/svg" xmlns:xlink="http://www.w3.org/1999/xlink" x="0px" y="0px"
	 viewBox="0 0 200 200" style="enable-background:new 0 0 200 200;" xml:space="preserve">
<style type="text/css">
	.st0{fill:#414141;}
</style>
<path class="st0" d="M60.1,199c-2.8,0-5-2.2-5-5v-3.9c0-6.4,5.2-11.7,11.7-11.7H78c0.4,0,0.7-0.2,0.8-0.6l4.6-14.5
	c0.1-0.3,0-0.6-0.1-0.8c-0.2-0.2-0.4-0.4-0.7-0.4H11.1c-6.1,0-11.1-5-11.1-11.1V12.6C0,6.5,5,1.6,11.1,1.6h178.1
	c6.1,0,11.1,5,11.1,11.1v138.5c0,6.1-5,11.1-11.1,11.1h-71.6c-0.3,0-0.5,0.1-0.7,0.4c-0.2,0.2-0.2,0.5-0.1,0.8l4.6,14.5
	c0.1,0.4,0.5,0.6,0.8,0.6h11.2c6.4,0,11.7,5.2,11.7,11.7v3.9c0,2.8-2.2,5-5,5H60.1z M66.8,182.6c-4.2,0-7.5,3.4-7.5,7.5v3.9
	c0,0.2,0.1,0.5,0.3,0.6c0.2,0.2,0.4,0.3,0.6,0.3l80,0c0.2,0,0.5-0.1,0.6-0.3c0.2-0.2,0.3-0.4,0.3-0.6l0-3.8c0-4.2-3.4-7.5-7.5-7.5
	H66.8z M88.9,162.2c-0.4,0-0.7,0.2-0.8,0.6l-4.6,14.5c-0.1,0.3,0,0.6,0.1,0.8c0.2,0.2,0.4,0.4,0.7,0.4H116c0.3,0,0.5-0.1,0.7-0.4
	c0.2-0.2,0.2-0.5,0.1-0.8l-4.6-14.5c-0.1-0.4-0.5-0.6-0.8-0.6H88.9z M5,140.4c-0.5,0-0.9,0.4-0.9,0.9v9.8c0,3.8,3.1,6.9,6.9,6.9
	h178.1c3.8,0,6.9-3.1,6.9-6.9v-9.8c0-0.5-0.4-0.9-0.9-0.9H5z M11.1,5.7c-3.8,0-6.9,3.1-6.9,6.9v122.8c0,0.5,0.4,0.9,0.9,0.9h190.2
	c0.5,0,0.9-0.4,0.9-0.9V12.6c0-3.8-3.1-6.9-6.9-6.9H11.1z M16.4,128.6c-0.2,0-0.3,0-0.5-0.1c-1-0.2-1.7-1-1.7-2c0,0,0-107.8,0-107.8
	c0-2,1.6-3.7,3.7-3.7h164.5c2,0,3.7,1.6,3.7,3.7v107.8c0,1-0.7,1.9-1.7,2c-0.2,0-0.4,0.1-0.5,0.1H16.4z M19.2,19.2
	c-0.5,0-0.9,0.4-0.9,0.9v103.2c0,0.5,0.4,0.9,0.9,0.9H181c0.5,0,0.9-0.4,0.9-0.9V20.1c0-0.5-0.4-0.9-0.9-0.9H19.2z M131.3,115.8
	c-0.6,0-1.3-0.3-1.7-0.8l-28.4-32.9c-0.2-0.2-0.4-0.3-0.7-0.3s-0.5,0.1-0.7,0.3L71.5,115c-0.4,0.5-1,0.8-1.7,0.8
	c-0.5,0-1-0.2-1.4-0.5c-0.9-0.8-1-2.2-0.2-3.1l29-33.6c0.3-0.3,0.3-0.8,0-1.2l-29-33.6c-0.4-0.4-0.6-1-0.5-1.6
	c0-0.6,0.3-1.1,0.8-1.5c0.4-0.3,0.9-0.5,1.4-0.5c0.6,0,1.3,0.3,1.7,0.8l28.4,32.9c0.2,0.2,0.4,0.3,0.7,0.3s0.5-0.1,0.7-0.3
	l28.4-32.9c0.4-0.5,1-0.8,1.7-0.8c0.5,0,1,0.2,1.4,0.5c0.9,0.8,1,2.2,0.2,3.1l-29,33.6c-0.3,0.3-0.3,0.8,0,1.2l29,33.6
	c0.8,0.9,0.7,2.3-0.2,3.1C132.4,115.6,131.8,115.8,131.3,115.8z"/>
</svg>
