<?xml version="1.0" encoding="utf-8"?>
<!-- Generator: Adobe Illustrator 22.0.1, SVG Export Plug-In . SVG Version: 6.00 Build 0)  -->
<svg version="1.1" id="Capa_2" xmlns="http://www.w3.org/2000/svg" xmlns:xlink="http://www.w3.org/1999/xlink" x="0px" y="0px"
	 viewBox="0 0 197.8 200" style="enable-background:new 0 0 197.8 200;" xml:space="preserve">
<style type="text/css">
	.st0{clip-path:url(#SVGID_2_);}
	.st1{clip-path:url(#SVGID_4_);fill:#414141;}
</style>
<g>
	<g>
		<defs>
			<rect id="SVGID_1_" x="-2.2" y="62" width="200" height="68"/>
		</defs>
		<clipPath id="SVGID_2_">
			<use xlink:href="#SVGID_1_"  style="overflow:visible;"/>
		</clipPath>
		<g class="st0">
			<defs>
				<rect id="SVGID_3_" x="-2.2" y="62" width="200" height="68"/>
			</defs>
			<clipPath id="SVGID_4_">
				<use xlink:href="#SVGID_3_"  style="overflow:visible;"/>
			</clipPath>
			<path class="st1" d="M84,64.9c-0.3-0.6-1.3-0.1-1,0.5c1.1,2.3,2.2,4.6,3.3,6.9c0.3,0.6,1.3,0.1,1-0.5
				C86.2,69.5,85.1,67.2,84,64.9"/>
			<path class="st1" d="M75.2,70.6c-0.4-0.4-1.2,0.3-0.8,0.8c1.8,1.8,3.7,3.6,5.5,5.4c0.4,0.4,1.2-0.3,0.8-0.8
				C78.9,74.2,77.1,72.4,75.2,70.6"/>
			<path class="st1" d="M103.6,64c-0.7,2.5-1.4,4.9-2.1,7.4c-0.2,0.6,0.9,0.9,1.1,0.3c0.7-2.5,1.4-4.9,2.1-7.4
				C104.8,63.7,103.8,63.4,103.6,64"/>
			<path class="st1" d="M93.1,62.5c0.3,2.5,0.5,5.1,0.8,7.6c0.1,0.6,1.2,0.5,1.1-0.1c-0.3-2.5-0.5-5.1-0.8-7.6
				C94.1,61.8,93,61.9,93.1,62.5"/>
			<path class="st1" d="M106.2,117.5c0.2,0.6,1.2,0.2,1-0.4c-0.9-2.4-1.8-4.8-2.8-7.2c-0.2-0.6-1.2-0.2-1,0.4
				C104.3,112.8,105.3,115.2,106.2,117.5"/>
			<path class="st1" d="M115.2,111.7c0.4,0.4,1.2-0.3,0.8-0.8c-1.8-1.8-3.7-3.6-5.5-5.4c-0.4-0.4-1.2,0.3-0.8,0.8
				C111.6,108.2,113.4,110,115.2,111.7"/>
			<path class="st1" d="M86.8,118.3c0.7-2.5,1.4-4.9,2.2-7.4c0.2-0.6-0.9-0.9-1.1-0.3c-0.7,2.5-1.4,4.9-2.1,7.4
				C85.6,118.6,86.6,118.9,86.8,118.3"/>
			<path class="st1" d="M97.1,119.9c-0.1-2.6-0.1-5.1-0.2-7.7c0-0.6-1.1-0.6-1.1,0c0.1,2.6,0.1,5.1,0.2,7.7
				C96,120.5,97.1,120.5,97.1,119.9"/>
			<path class="st1" d="M52,100.4c0,0.2,0,0.5,0.1,0.7c0.1,0.4,0.2,0.7,0.5,1c0.5,0.6,1,0.8,1,0.8c0.5,0.2,1.1,0.3,1.7,0.2l5.3-1.2
				l0.7,2.8c0.4,1.8,2.2,2.9,3.9,2.5l3.2-0.7c0.6,1.5,2.2,2.4,3.8,2l10.3-2.4c0.5,0.7,1.3,1.1,2,0.9c1-0.2,1.6-1.4,1.4-2.6L81,83.3
				c-0.3-1.2-1.3-2-2.4-1.8c-0.8,0.2-1.3,0.9-1.4,1.7l-10.3,2.4c-1.6,0.4-2.7,1.9-2.5,3.5l-3.2,0.7c-1.8,0.4-2.9,2.2-2.5,3.9
				l0.7,2.8L54,97.9c-0.8,0.2-1.4,0.7-1.7,1.3 M55,102c-0.8,0.2-1.7-0.3-1.9-1.2c-0.2-0.9,0.3-1.7,1.2-1.9l5.3-1.2l0.7,3.1L55,102z
				 M64.9,106.1c-1.2,0.3-2.4-0.5-2.6-1.6l-2.5-10.9c-0.3-1.2,0.5-2.4,1.6-2.6l3.1-0.7l3.5,15.2L64.9,106.1z M71.9,107.4
				c-1.2,0.3-2.4-0.5-2.6-1.6l-3.8-16.4c-0.3-1.2,0.5-2.4,1.6-2.6l10.2-2.3L82,105L71.9,107.4z M84.2,105.9
				c-0.4,0.1-0.9-0.3-1.1-0.9l-4.8-21.1c-0.1-0.6,0.1-1.2,0.5-1.3c0.4-0.1,0.9,0.3,1.1,0.9l4.8,21.1
				C84.9,105.3,84.6,105.8,84.2,105.9"/>
			<path class="st1" d="M64.1,102.3c-0.6-2.5-1.1-5-1.7-7.5c-0.1-0.6-1.2-0.4-1.1,0.2c0.6,2.5,1.1,5,1.7,7.5
				C63.1,103.1,64.2,102.9,64.1,102.3"/>
			<path class="st1" d="M66.1,101.8c-0.6-2.5-1.1-5-1.7-7.5c-0.1-0.6-1.2-0.4-1.1,0.2c0.6,2.5,1.1,5,1.7,7.5
				C65.1,102.6,66.2,102.4,66.1,101.8"/>
			<path class="st1" d="M125.8,80.2c0.6,2.5,1.1,5,1.7,7.5c0.1,0.6,1.2,0.4,1.1-0.2c-0.6-2.5-1.1-5-1.7-7.5
				C126.8,79.3,125.7,79.6,125.8,80.2"/>
			<path class="st1" d="M123.8,80.6c0.6,2.5,1.1,5,1.7,7.5c0.1,0.6,1.2,0.4,1.1-0.2c-0.6-2.5-1.1-5-1.7-7.5
				C124.7,79.8,123.7,80,123.8,80.6"/>
			<path class="st1" d="M197.8,80.6c-1.5,0.2-2.9,0.3-4.4,0.3c-0.5,0-1,0-1.4,0c-4.6-0.2-8.6-1.3-12.1-3.1c-1.8-1-3.5-2.1-5-3.3
				c-1.5-1.2-2.7-2.5-3.9-3.8c-0.1-0.1-0.2-0.3-0.3-0.4c-0.9-1-1.8-2-3-2.6c-0.9-0.4-1.9-0.6-2.9-0.6c-0.6,0-1.2,0.1-1.8,0.2
				c-3.1,0.8-5.6,2.9-8.2,5.3c-0.3,0.3-0.6,0.6-0.9,0.8c-2.1,1.9-4,3.8-6.5,5.1c-3,1.6-6.2,2.7-9.4,3.6c0-0.2,0-0.5-0.1-0.7
				c-0.1-0.4-0.3-0.7-0.5-1c0.2-0.1,0.5-0.1,0.7-0.2c3.1-0.9,6.6-2.1,9.7-4.1c1.8-1.1,3.3-2.6,4.8-4c0.7-0.7,1.5-1.4,2.3-2.1
				c2.4-2.1,5.3-4.3,8.8-4.7c0.3,0,0.7-0.1,1.1-0.1c1.4,0,2.7,0.3,3.8,0.9c1.3,0.7,2.3,1.8,3.4,2.9c1.1,1.3,2.4,2.7,3.9,3.9
				c1.4,1.2,3.1,2.3,5,3.3c3.5,1.9,7.7,2.9,12.1,2.9c0.1,0,0.2,0,0.3,0c1.6,0,3.1-0.1,4.7-0.3v-1.1c-1.6,0.2-3.1,0.3-4.7,0.3
				c-0.1,0-0.2,0-0.3,0c-4.3,0-8.3-1-11.6-2.8c-1.8-1-3.4-2-4.8-3.2c-1.4-1.2-2.7-2.6-3.8-3.8c-1.1-1.2-2.2-2.4-3.7-3.2
				c-1.3-0.7-2.8-1-4.3-1c-0.4,0-0.8,0-1.2,0.1c-3.7,0.5-6.8,2.8-9.4,4.9c-0.8,0.7-1.6,1.4-2.3,2.1c-1.5,1.4-3,2.8-4.7,3.9
				c-3,1.9-6.4,3-9.4,3.9c-0.5,0.1-1,0.3-1.4,0.4c0,0,0,0,0,0c-0.5-0.2-1.1-0.3-1.7-0.2l-5.3,1.2l-0.7-2.8c-0.4-1.8-2.2-2.9-3.9-2.5
				l-3.1,0.7l-0.4-1.9c-0.3-1.2-1.3-2-2.4-1.8c-0.8,0.2-1.3,0.9-1.4,1.7l-11.6,2.7c-1,0.2-1.7,1.3-1.4,2.3l0.2,0.9l-6.7,1.5
				c-1.5,0.3-2.4,1.3-2.2,2.3c0.2,1,1.5,1.4,3,1.1l6.7-1.5l2.4,10.6l-6.7,1.5c-1.5,0.3-2.4,1.3-2.2,2.3c0.2,1,1.5,1.4,3,1.1l6.7-1.5
				l0.2,0.9c0.2,1,1.3,1.7,2.3,1.4l11.6-2.7c0.5,0.7,1.3,1.1,2,0.9c1-0.2,1.6-1.4,1.4-2.6l-0.4-1.9l3.1-0.7c1.8-0.4,2.9-2.2,2.5-3.9
				l-0.7-2.8l5.3-1.2c0.8-0.2,1.4-0.6,1.7-1.3c3.4-1,7-2.1,10.3-3.9c2.5-1.4,4.6-3.3,6.7-5.2c0.3-0.3,0.6-0.6,0.9-0.8
				c2.5-2.3,4.9-4.3,7.8-5.1c0.5-0.1,1-0.2,1.5-0.2c0.9,0,1.7,0.2,2.4,0.5c1,0.5,1.8,1.4,2.7,2.3c0.1,0.1,0.2,0.3,0.3,0.4
				c1.2,1.3,2.5,2.7,4,3.9c1.5,1.2,3.3,2.4,5.2,3.4c3.6,2,7.8,3.1,12.6,3.3c0.5,0,1,0,1.5,0c1.5,0,3-0.1,4.4-0.3V80.6z M98.4,83.7
				c-0.9,0.2-1.6,0-1.7-0.3c0-0.2,0.5-0.7,1.4-1l6.7-1.5l0.3,1.2L98.4,83.7z M107.3,87.3l5.9-1.4l0.5,2l-5.9,1.4L107.3,87.3z
				 M101.6,97.7c-0.9,0.2-1.6,0-1.7-0.3c0-0.2,0.5-0.7,1.4-1l6.7-1.5l0.3,1.2L101.6,97.7z M110.7,98.4c-0.4,0.1-0.9-0.2-1-0.6
				l-1.7-7.4l7-1.6l-1-4.1l-7,1.6l-1.7-7.4c-0.1-0.4,0.2-0.9,0.6-1l11.5-2.6l4.7,20.6L110.7,98.4z M124.4,96.7
				c-0.4,0.1-0.9-0.3-1.1-0.9l-4.8-21.1c-0.1-0.6,0.1-1.2,0.5-1.3c0.4-0.1,0.9,0.3,1.1,0.9l4.8,21.1C125.1,96,124.8,96.6,124.4,96.7
				 M128.5,91.5l-3.1,0.7L121.8,77l3.1-0.7c1.2-0.3,2.4,0.5,2.6,1.6l2.5,10.9C130.4,90,129.6,91.2,128.5,91.5 M135.6,83.5l-5.3,1.2
				l-0.7-3.1l5.3-1.2c0.8-0.2,1.7,0.3,1.9,1.2C137,82.4,136.5,83.3,135.6,83.5"/>
			<path class="st1" d="M52.1,100.1c0,0.1,0,0.3,0,0.5C52.1,100.4,52.1,100.2,52.1,100.1"/>
			<path class="st1" d="M52.1,100.1c-0.2,0-0.5,0.1-0.7,0.1c-3.1,0.6-6.8,1.3-10.4,1c-2.1-0.2-4.2-0.7-6.2-1.3c-1-0.3-2-0.5-3-0.8
				c-3.1-0.7-6.7-1.2-10,0.1c-0.3,0.1-0.6,0.3-1,0.4c-1.2,0.6-2.2,1.6-2.9,2.6c-0.8,1.2-1.2,2.7-1.6,4.2c-0.4,1.6-0.8,3.5-1.5,5.3
				c-0.7,1.7-1.6,3.5-2.8,5.3c-2.2,3.3-5.4,6.2-9.3,8.3c-0.1,0-0.2,0.1-0.2,0.1c-1.4,0.8-2.8,1.4-4.2,2l-0.5-1
				c1.4-0.6,2.8-1.2,4.2-2c0.1,0,0.2-0.1,0.2-0.1c3.7-2.1,6.8-4.8,8.9-8c1.1-1.7,2-3.4,2.7-5.1c0.7-1.7,1.1-3.5,1.5-5.1
				c0.4-1.6,0.8-3.1,1.7-4.5c0.8-1.2,2-2.2,3.3-3c0.3-0.2,0.7-0.4,1.1-0.5c3.5-1.4,7.3-0.8,10.6-0.1c1,0.2,2.1,0.5,3.1,0.8
				c1.9,0.5,4,1.1,6,1.2c3.5,0.3,7.1-0.4,10.1-1c0.5-0.1,1-0.2,1.4-0.3c0,0,0,0,0,0C52.6,98.8,52.1,99.6,52.1,100.1"/>
			<path class="st1" d="M52.1,100.6C52.1,100.6,52.1,100.6,52.1,100.6C52.1,100.6,52.1,100.6,52.1,100.6"/>
			<path class="st1" d="M34.1,102.7c-0.4-0.1-0.8-0.2-1.2-0.3c-3.4-0.9-6.4-1.5-9.2-0.8c-0.5,0.1-1,0.3-1.4,0.6
				c-0.8,0.4-1.4,1-1.9,1.6c-0.7,0.9-0.9,2.1-1.2,3.3c0,0.2-0.1,0.3-0.1,0.5c-0.4,1.7-0.9,3.6-1.6,5.4c-0.8,1.8-1.7,3.7-2.9,5.5
				C12.2,122,9,125,5,127.4c-0.4,0.2-0.8,0.5-1.3,0.7c-1.3,0.7-2.7,1.3-4,1.9l-0.5-1c1.4-0.6,2.7-1.2,4-1.9c0.4-0.2,0.8-0.5,1.2-0.7
				c3.9-2.3,7-5.2,9.1-8.5c1.1-1.8,2.1-3.5,2.8-5.3c0.7-1.7,1.2-3.5,1.6-5.2c0-0.2,0.1-0.3,0.1-0.5c0.3-1.3,0.6-2.6,1.4-3.7
				c0.6-0.8,1.3-1.4,2.2-1.9c0.5-0.3,1.1-0.5,1.7-0.6c3.1-0.8,6.3-0.1,9.8,0.8c0.4,0.1,0.8,0.2,1.2,0.3c2.7,0.7,5.3,1.4,8.1,1.4
				c3.4,0,6.8-0.6,10-1.3c0,0,0,0,0,0c0.2,0.3,0.5,0.6,0.9,0.9c-3.5,0.8-7.2,1.4-10.9,1.4C39.5,104.2,36.8,103.4,34.1,102.7"/>
		</g>
	</g>
</g>
</svg>
